<svg aria-hidden="true" style="position: absolute; width: 0; height: 0; overflow: hidden;" version="1.1" xmlns="http://www.w3.org/2000/svg" xmlns:xlink="http://www.w3.org/1999/xlink">
    <defs>
        <symbol id="icon-close-mob-menu-btn" viewBox="0 0 32 32">
            <path stroke-linejoin="miter" stroke-linecap="butt" stroke-miterlimit="4" stroke-width="1.3333" d="M25.5 16c0 5.247-4.253 9.5-9.5 9.5s-9.5-4.253-9.5-9.5c0-5.247 4.253-9.5 9.5-9.5s9.5 4.253 9.5 9.5z"></path>
            <path stroke-linejoin="miter" stroke-linecap="round" stroke-miterlimit="4" stroke-width="1.3333" d="M19.699 12.346l-3.699 3.699M16 16.046l-3.699 3.699M16 16.046l3.699 3.699M16 16.046l-3.699-3.699"></path>
        </symbol>
        <symbol id="icon-arr-next" viewBox="0 0 32 32">
            <path stroke-linejoin="round" stroke-linecap="round" stroke-miterlimit="4" stroke-width="1.3333" d="M6 16.004l19.996-0.004M25.996 16l-5.384-5.386M25.996 16l-5.384 5.386"></path>
        </symbol>
        <symbol id="icon-arr-prew" viewBox="0 0 32 32">
            <path stroke-linejoin="round" stroke-linecap="round" stroke-miterlimit="4" stroke-width="2" d="M30.996 16l-29.995 0.006M1.002 16.006l8.075 8.078M1.002 16.006l8.075-8.078"></path>
        </symbol>
        <symbol id="icon-clock" viewBox="0 0 32 32">
            <path stroke-linejoin="round" stroke-linecap="round" stroke-miterlimit="4" stroke-width="1" d="M16 7.231v9.865l6.577 5.481M30.25 16c0 7.87-6.38 14.25-14.25 14.25s-14.25-6.38-14.25-14.25c0-7.87 6.38-14.25 14.25-14.25s14.25 6.38 14.25 14.25z"></path>
        </symbol>
        <symbol id="icon-cloose-btn" viewBox="0 0 32 32">
            <path stroke-linejoin="round" stroke-linecap="round" stroke-miterlimit="4" stroke-width="1.3333" d="M7 7l9 9M16 16l-9 9M16 16l9 9M16 16l9-9"></path>
        </symbol>
        <symbol id="icon-delete" viewBox="0 0 32 32">
            <path stroke-linejoin="round" stroke-linecap="round" stroke-miterlimit="4" stroke-width="1.6" d="M16 25.354v-14.031M0.8 5.477h3.508M31.2 5.477h-3.508M21.846 5.477h-11.692M21.846 5.477v-2.338c0-1.292-1.047-2.338-2.338-2.338h-7.015c-1.291 0-2.338 1.047-2.338 2.338v2.338M21.846 5.477h5.846M10.154 5.477h-5.846M27.692 5.477v21.046c0 2.583-2.094 4.677-4.677 4.677h-14.031c-2.583 0-4.677-2.094-4.677-4.677v-21.046"></path>
        </symbol>
        <symbol id="icon-eye" viewBox="0 0 32 32">
            <path stroke-linejoin="miter" stroke-linecap="round" stroke-miterlimit="4" stroke-width="1.6" d="M15.446 9.454c-7.647 0-13.846 7.394-13.846 9.273s6.199 9.273 13.846 9.273c7.647 0 13.846-7.394 13.846-9.273s-6.199-9.273-13.846-9.273zM15.446 9.454c-3.365 0-6.092 2.686-6.092 6s2.728 6 6.092 6c3.365 0 6.092-2.686 6.092-6s-2.728-6-6.092-6zM30.4 9.455c-4.217-3.465-9.141-5.455-14.4-5.455s-10.183 1.989-14.4 5.455"></path>
        </symbol>
        <symbol id="icon-eye-crossed" viewBox="0 0 32 32">
            <path stroke-linejoin="miter" stroke-linecap="round" stroke-miterlimit="4" stroke-width="1.6" d="M21.143 27.44c-1.737 0.807-3.666 1.332-5.697 1.332-7.647 0-13.846-7.448-13.846-9.34 0-1.073 1.992-3.93 5.11-6.205M27.631 22.425c1.060-1.275 1.661-2.404 1.661-2.993 0-1.892-6.199-9.34-13.846-9.34 3.365 0 6.092 2.706 6.092 6.044M15.446 22.179c-3.365 0-6.092-2.706-6.092-6.044M30.4 10.092c-4.217-3.49-9.141-5.494-14.4-5.494-1.895 0-3.747 0.26-5.538 0.757M1.6 10.092c0.391-0.324 0.788-0.634 1.191-0.932M1.6 2.4l26.743 27"></path>
        </symbol>
        <symbol id="icon-filter" viewBox="0 0 32 32">
            <path stroke-linejoin="miter" stroke-linecap="butt" stroke-miterlimit="4" stroke-width="1.6" d="M4.653 2.4l22.694 0c1.686 0 3.053 1.367 3.053 3.053 0 0.779-0.298 1.529-0.833 2.096l-10.244 10.851v7.708c0 2.358-2.464 3.906-4.588 2.883l-0.246-0.119c-1.108-0.533-1.812-1.654-1.812-2.883v-7.589l-10.244-10.851c-0.535-0.567-0.833-1.317-0.833-2.096 0-1.686 1.367-3.053 3.053-3.053z"></path>
        </symbol>
        <symbol id="icon-home" viewBox="0 0 32 32">
            <path d="M6.5 16.524v0zM6.5 24.044v0zM24.038 25.5v0zM7.962 25.5v0zM25.5 16.524v0zM25.5 24.044v0zM24.727 14.55v0zM18.15 7.439v0zM13.85 7.439v0zM7.273 14.55v0zM13.077 18.219v0zM13.077 24.772v0zM18.192 25.5v0zM13.808 25.5v0zM18.923 18.219v0zM18.923 24.772v0zM18.192 17.491v0zM13.808 17.491v0zM6.5 16.524h-0.333v7.52h0.667v-7.52h-0.333zM24.038 25.5v-0.333h-16.077v0.667h16.077v-0.333zM25.5 16.524h-0.333v7.52h0.667v-7.52h-0.333zM24.727 14.55l0.245-0.226-6.577-7.112-0.489 0.453 6.577 7.112 0.245-0.226zM13.85 7.439l-0.245-0.226-6.577 7.111 0.489 0.453 6.577-7.111-0.245-0.226zM18.15 7.439l0.245-0.226c-1.29-1.394-3.499-1.394-4.789 0l0.489 0.453c1.026-1.109 2.784-1.109 3.81 0l0.245-0.226zM25.5 16.524h0.333c0-0.815-0.308-1.6-0.862-2.2l-0.489 0.453c0.441 0.476 0.685 1.1 0.685 1.747h0.333zM6.5 16.524h0.333c0-0.647 0.244-1.271 0.685-1.747l-0.489-0.453c-0.554 0.599-0.862 1.385-0.862 2.2h0.333zM6.5 24.044h-0.333c0 0.989 0.805 1.789 1.795 1.789v-0.667c-0.624 0-1.128-0.504-1.128-1.123h-0.333zM24.038 25.5v0.333c0.99 0 1.795-0.8 1.795-1.789h-0.667c0 0.619-0.504 1.123-1.128 1.123v0.333zM13.077 18.219h-0.333v6.553h0.667v-6.553h-0.333zM18.192 25.5v-0.333h-4.385v0.667h4.385v-0.333zM18.923 18.219h-0.333v6.553h0.667v-6.553h-0.333zM18.192 17.491v-0.333h-4.385v0.667h4.385v-0.333zM18.923 18.219h0.333c0-0.587-0.478-1.061-1.064-1.061v0.667c0.221 0 0.397 0.178 0.397 0.395h0.333zM13.077 18.219h0.333c0-0.217 0.177-0.395 0.397-0.395v-0.667c-0.587 0-1.064 0.474-1.064 1.061h0.333zM13.077 24.772h-0.333c0 0.587 0.478 1.061 1.064 1.061v-0.667c-0.221 0-0.397-0.178-0.397-0.395h-0.333zM18.192 25.5v0.333c0.587 0 1.064-0.474 1.064-1.061h-0.667c0 0.217-0.177 0.395-0.397 0.395v0.333z"></path>
        </symbol>
        <symbol id="icon-logout" viewBox="0 0 32 32">
            <path stroke-linejoin="round" stroke-linecap="round" stroke-miterlimit="4" stroke-width="1.5238" d="M10.784 1.524h-5.568c-2.46 0-4.454 1.994-4.454 4.454v20.044c0 2.46 1.994 4.454 4.454 4.454h5.568M8.381 16h22.271M30.652 16l-6.681 6.681M30.652 16l-6.681-6.681"></path>
        </symbol>
        <symbol id="icon-Privacy-Policy" viewBox="0 0 32 32">
            <path stroke-linejoin="round" stroke-linecap="round" stroke-miterlimit="4" stroke-width="3" d="M7 14.941l6.667 7.059 11.333-12"></path>
        </symbol>
        <symbol id="icon-save" viewBox="0 0 32 32">
            <path stroke-linejoin="round" stroke-linecap="round" stroke-miterlimit="4" stroke-width="1.8824" d="M15.995 0.941c2.379 0 4.562 0.228 6.292 0.491 2.191 0.333 3.908 1.834 4.397 3.932 0.59 2.532 1.169 6.385 1.070 11.559-0.11 5.709-0.943 9.829-1.746 12.516-0.217 0.727-0.72 1.101-1.289 1.197-0.594 0.1-1.328-0.098-1.925-0.691-1.086-1.081-2.329-2.248-3.476-3.151-0.572-0.45-1.142-0.852-1.671-1.145-0.499-0.277-1.083-0.528-1.653-0.528-0.56 0-1.165 0.247-1.693 0.518-0.563 0.289-1.186 0.686-1.824 1.136-1.277 0.902-2.692 2.070-3.938 3.153-0.658 0.571-1.432 0.706-2.042 0.54-0.589-0.16-1.086-0.613-1.239-1.401-0.525-2.707-1.024-6.705-1.024-12.127 0-5.409 0.557-9.224 1.112-11.68 0.46-2.035 2.12-3.485 4.255-3.814 1.746-0.27 3.967-0.505 6.392-0.505z"></path>
        </symbol>
    </defs>
</svg>